<?xml version="1.0" ?>
<!DOCTYPE svg  PUBLIC '-//W3C//DTD SVG 1.1//EN'  'http://www.w3.org/Graphics/SVG/1.1/DTD/svg11.dtd'>
<!-- Uploaded to: SVG Repo, www.svgrepo.com, Generator: SVG Repo Mixer Tools -->
<svg fill="#000000" width="800px" height="800px" viewBox="0 0 524 524" style="shape-rendering:geometricPrecision; text-rendering:geometricPrecision; image-rendering:optimizeQuality; fill-rule:evenodd; clip-rule:evenodd" version="1.1" xml:space="preserve" xmlns="http://www.w3.org/2000/svg" xmlns:xlink="http://www.w3.org/1999/xlink">
<defs>
<style type="text/css">
   <![CDATA[
    .fil0 {fill:black;fill-rule:nonzero}
   ]]>
  </style>
</defs>
<g id="Layer_x0020_1">
<path class="fil0" d="M262 0c72,0 138,29 185,77 48,47 77,113 77,185 0,72 -29,138 -77,185 -47,48 -113,77 -185,77 -72,0 -138,-29 -185,-77 -48,-47 -77,-113 -77,-185 0,-72 29,-138 77,-185 47,-48 113,-77 185,-77zm177 85c-45,-45 -108,-73 -177,-73 -69,0 -132,28 -177,73 -45,45 -73,108 -73,177 0,69 28,132 73,177 45,45 108,73 177,73 69,0 132,-28 177,-73 45,-45 73,-108 73,-177 0,-69 -28,-132 -73,-177z" id="Curve_x0020_767"/>
<path class="fil0" d="M208 368c2,3 2,7 0,9 -3,2 -6,2 -9,0l-110 -111c-3,-2 -3,-6 0,-8l110 -111c3,-2 6,-2 9,0 2,2 2,6 0,9l-107 106 107 106z" id="Curve_x0020_456"/>
<path class="fil0" d="M93 268c-3,0 -6,-3 -6,-6 0,-3 3,-6 6,-6l338 0c3,0 6,3 6,6 0,3 -3,6 -6,6l-338 0z" id="Curve_x0020_45"/>
</g>
</svg>