<?xml version="1.0" encoding="iso-8859-1"?>
<!-- Uploaded to: SVG Repo, www.svgrepo.com, Generator: SVG Repo Mixer Tools -->
<svg version="1.1" id="Layer_1" xmlns="http://www.w3.org/2000/svg" xmlns:xlink="http://www.w3.org/1999/xlink" 
	  viewBox="0 0 511.999 511.999" xml:space="preserve">
<path style="fill:#1EB615;" d="M501.55,371.301c0,23.083-18.713,41.796-41.797,41.796H52.244c-23.084,0-41.796-18.713-41.796-41.796
	l0,0c0-23.083,18.712-41.796,41.796-41.796h407.509C482.837,329.505,501.55,348.218,501.55,371.301L501.55,371.301z"/>
<rect x="55.379" y="113.298" style="fill:#FFD41D;" width="200.62" height="216.2"/>
<rect x="97.174" y="160.235" style="fill:#10BAFC;" width="117.029" height="91.951"/>
<polygon style="fill:#D50707;" points="255.999,46.337 55.379,46.337 11.493,113.302 299.885,113.302 "/>
<path style="fill:#0084FF;" d="M404.374,211.43H255.999v118.074h200.62v-65.83C456.619,234.82,433.228,211.43,404.374,211.43z"/>
<rect x="323.876" y="153.965" style="fill:#1EB615;" width="80.457" height="57.469"/>
<path d="M323.769,383.839h-0.245c-5.77,0-10.449-4.679-10.449-10.449s4.679-10.449,10.449-10.449h0.245
	c5.77,0,10.449,4.679,10.449,10.449S329.54,383.839,323.769,383.839z"/>
<path d="M289.72,383.839H188.228c-5.771,0-10.449-4.679-10.449-10.449s4.678-10.449,10.449-10.449H289.72
	c5.77,0,10.449,4.679,10.449,10.449S295.491,383.839,289.72,383.839z"/>
<g>
	<circle style="fill:#FFD41D;" cx="403.956" cy="412.995" r="52.663"/>
	<circle style="fill:#FFD41D;" cx="108.041" cy="412.995" r="52.663"/>
</g>
<path d="M511.999,371.301c0-26.324-19.574-48.152-44.931-51.722v-55.903c0-31.023-22.657-56.84-52.288-61.814v-47.9
	c0-5.771-4.679-10.449-10.449-10.449h-80.458c-5.771,0-10.449,4.678-10.449,10.449v47.02h-46.976v-77.23h33.437
	c3.839,0,7.369-2.105,9.193-5.483s1.651-7.483-0.453-10.693l-43.886-66.965c-1.932-2.946-5.217-4.722-8.74-4.722H55.379
	c-3.522,0-6.809,1.775-8.74,4.722L2.754,107.574c-2.104,3.211-2.28,7.316-0.455,10.693c1.825,3.377,5.355,5.483,9.194,5.483h33.437
	v195.827C19.574,323.147,0,344.975,0,371.3c0,26.609,20,48.619,45.755,51.828c4.863,30,30.939,52.984,62.292,52.984
	c31.206,0,57.18-22.771,62.217-52.567h171.472c5.037,29.795,31.012,52.567,62.217,52.567c31.353,0,57.429-22.984,62.292-52.984
	C491.999,419.92,511.999,397.91,511.999,371.301z M334.322,164.41h59.56v36.571h-59.56V164.41z M404.374,221.879
	c23.046,0,41.796,18.75,41.796,41.796v55.381H266.448v-97.177L404.374,221.879L404.374,221.879z M61.023,56.786h189.33l30.19,46.067
	h-24.545H55.379H30.834L61.023,56.786z M245.55,123.751v195.305H65.828V123.751H245.55z M108.046,455.213
	c-23.279,0-42.218-18.939-42.218-42.218c0-23.279,18.939-42.218,42.218-42.218s42.218,18.939,42.218,42.218
	C150.264,436.275,131.326,455.213,108.046,455.213z M403.952,455.213c-23.279,0-42.218-18.939-42.218-42.218
	c0-23.279,18.939-42.218,42.218-42.218c23.279,0,42.218,18.939,42.218,42.218C446.17,436.275,427.232,455.213,403.952,455.213z
	 M466.091,402.003c-5.219-29.578-31.088-52.125-62.139-52.125c-31.278,0-57.3,22.874-62.254,52.768H170.3
	c-4.954-29.895-30.976-52.768-62.254-52.768c-31.051,0-56.92,22.547-62.139,52.125c-14.257-2.938-25.01-15.589-25.01-30.702
	c0-17.285,14.062-31.347,31.347-31.347h404.375h3.134c17.286,0,31.348,14.062,31.348,31.347
	C491.101,386.414,480.348,399.065,466.091,402.003z"/>
<path d="M97.174,262.63h117.029c5.771,0,10.449-4.679,10.449-10.449V160.23c0-5.771-4.678-10.449-10.449-10.449H97.174
	c-5.77,0-10.449,4.678-10.449,10.449v91.951C86.725,257.951,91.405,262.63,97.174,262.63z M107.623,170.679h96.131v71.053h-96.131
	V170.679z"/>
</svg>